<svg xmlns="http://www.w3.org/2000/svg" viewBox="0 0 310.6 97"><defs><style>.cls-1{fill:#fff;}.cls-2{fill:#63f;}</style></defs><title>hhAsset 20@1x</title><g id="Layer_2" data-name="Layer 2"><g id="Layer_1-2" data-name="Layer 1"><path class="cls-1" d="M17.64,97C12.43,97,8,94.09,8,87.53V64.41c0-6.68-2.77-12.33-8-12.33V45.3c5.23,0,8-5.65,8-12.33V9.47C8,2.91,12.43,0,17.64,0H26V6H21.24C18.16,6,17,8.31,17,12.53v23c0,8.84-6.36,12.36-8,12.86v.2c1.64.5,8,4,8,12.86v23C17,88.69,18.16,91,21.24,91H26v6Z"/><path class="cls-1" d="M45.5,55c.8,12.29,7.44,14.81,13.38,14.81,5.23,0,9.86-1.91,12.47-6.35l8,2.12C77,73.94,68.93,78.48,59.18,78.48c-12,0-23-7-23-26,0-19.35,11.36-26.3,22.43-26.3S81,33.13,81,52.38V55Zm25.32-7c-1.31-10.78-7.64-13.1-12.87-13.1S46.38,37.22,45,48Z"/><path class="cls-1" d="M115.5,77l-.2-3.73c-3.9,3-8.7,4.33-14,4.33-9.7,0-17.7-4.33-17.7-14.91,0-9.67,6.6-14.71,18-15.42l13.4-.81V43.95c0-6.45-3.7-10-10.3-10-4.3,0-7.4,1.51-9.4,4.63l-7.4-2.12c2-6.85,8.6-11.18,17.4-11.18,11.6,0,18.7,7.66,18.7,17.63V77ZM115,54.23,101.52,55c-6.23.4-8.85,3.22-8.85,8.06,0,3.23,1.21,6.45,9.25,6.45,3.82,0,9-.7,13.07-5.84Z"/><path class="cls-1" d="M157.9,36.86a12.16,12.16,0,0,0-4.1-.6c-4.7,0-10.5,2.21-11.8,13.18V78h-9V27h8.5l.3,6.94c3.6-5.13,8.1-7.54,13.2-7.54,1.2,0,2.7.1,3.9.2Z"/><path class="cls-1" d="M192,78V48.38c0-11.29-5.57-13.4-10-13.4s-9.85,2-11,11.79V78h-9V27h8.48l.2,4.43a17.74,17.74,0,0,1,12.47-5c8.48,0,17.85,5.43,17.85,21.12V78Z"/><path class="cls-1" d="M215,97V91h4.76c3.08,0,4.24-2.32,4.24-6.55V61.38c0-8.87,6.36-12.39,8-12.9v-.2c-1.64-.5-8-4-8-12.9V12.09C224,8.16,222.77,6,219.5,6H215V0h7.95C228.38,0,233,3.12,233,10.18V33.66c0,6.55,2.77,12.09,8,12.09V52.4c-5.23,0-8,5.54-8,12.09v23c0,6.56-4.43,9.47-9.64,9.47Z"/><path class="cls-2" d="M250,77V69h11V35H250V26h20V69h11v8Zm15.93-58.94a6.32,6.32,0,0,1-6.34-6.35,6.4,6.4,0,0,1,6.34-6.45,6.49,6.49,0,0,1,6.44,6.45A6.4,6.4,0,0,1,265.93,18.06Z"/><path class="cls-2" d="M310.6,75.91a16.08,16.08,0,0,1-8.9,2.52c-10.1,0-13.7-7.05-13.7-16.12V35h-6V26h6V11h9V27h13v8H297V61.3c0,5.54,1.2,8.46,5.4,8.46a26.31,26.31,0,0,0,7.6-1.71Z"/></g></g></svg>